<?xml version="1.0" encoding="UTF-8"?>
<svg width="200px" height="200px" viewBox="0 0 200 200" version="1.1" xmlns="http://www.w3.org/2000/svg">
    <g stroke="none" fill="none">
        <!-- Solar Panel Pattern -->
        <g transform="translate(10, 10)" stroke="#3498db" stroke-width="1">
            <!-- Panel 1 -->
            <rect x="0" y="0" width="80" height="80" rx="2" />
            <line x1="0" y1="20" x2="80" y2="20" />
            <line x1="0" y1="40" x2="80" y2="40" />
            <line x1="0" y1="60" x2="80" y2="60" />
            <line x1="20" y1="0" x2="20" y2="80" />
            <line x1="40" y1="0" x2="40" y2="80" />
            <line x1="60" y1="0" x2="60" y2="80" />
            
            <!-- Panel 2 -->
            <rect x="100" y="0" width="80" height="80" rx="2" />
            <line x1="100" y1="20" x2="180" y2="20" />
            <line x1="100" y1="40" x2="180" y2="40" />
            <line x1="100" y1="60" x2="180" y2="60" />
            <line x1="120" y1="0" x2="120" y2="80" />
            <line x1="140" y1="0" x2="140" y2="80" />
            <line x1="160" y1="0" x2="160" y2="80" />
            
            <!-- Panel 3 -->
            <rect x="0" y="100" width="80" height="80" rx="2" />
            <line x1="0" y1="120" x2="80" y2="120" />
            <line x1="0" y1="140" x2="80" y2="140" />
            <line x1="0" y1="160" x2="80" y2="160" />
            <line x1="20" y1="100" x2="20" y2="180" />
            <line x1="40" y1="100" x2="40" y2="180" />
            <line x1="60" y1="100" x2="60" y2="180" />
            
            <!-- Panel 4 -->
            <rect x="100" y="100" width="80" height="80" rx="2" />
            <line x1="100" y1="120" x2="180" y2="120" />
            <line x1="100" y1="140" x2="180" y2="140" />
            <line x1="100" y1="160" x2="180" y2="160" />
            <line x1="120" y1="100" x2="120" y2="180" />
            <line x1="140" y1="100" x2="140" y2="180" />
            <line x1="160" y1="100" x2="160" y2="180" />
        </g>
        
        <!-- Water Droplets -->
        <g fill="#3498db" opacity="0.7">
            <circle cx="30" cy="30" r="3" />
            <circle cx="130" cy="50" r="2" />
            <circle cx="50" cy="150" r="2.5" />
            <circle cx="150" cy="130" r="3" />
        </g>
        
        <!-- Sun Rays -->
        <g stroke="#f39c12" stroke-width="1.5" opacity="0.6">
            <line x1="0" y1="0" x2="15" y2="15" />
            <line x1="185" y1="0" x2="170" y2="15" />
            <line x1="0" y1="185" x2="15" y2="170" />
            <line x1="185" y1="185" x2="170" y2="170" />
        </g>
    </g>
</svg> 